<?xml version="1.0" standalone="no"?>
<!DOCTYPE svg PUBLIC "-//W3C//DTD SVG 20010904//EN"
 "http://www.w3.org/TR/2001/REC-SVG-20010904/DTD/svg10.dtd">
<svg version="1.0" xmlns="http://www.w3.org/2000/svg"
 width="810.000000pt" height="810.000000pt" viewBox="0 0 810.000000 810.000000"
 preserveAspectRatio="xMidYMid meet">
<metadata>
Created by potrace 1.11, written by Peter Selinger 2001-2013
</metadata>
<g transform="translate(0.000000,810.000000) scale(0.100000,-0.100000)"
fill="#000000" stroke="none">
<path d="M3720 8033 c-214 -15 -637 -95 -830 -158 -380 -124 -620 -231 -909
-405 -278 -167 -517 -355 -761 -600 -621 -620 -1010 -1396 -1134 -2260 -51
-353 -51 -780 0 -1130 127 -884 535 -1684 1178 -2308 691 -669 1572 -1057
2546 -1121 86 -6 135 -13 140 -21 5 -7 9 -8 11 -2 2 6 72 13 169 17 616 24
1129 146 1638 391 198 95 302 154 492 280 226 149 401 294 611 503 340 341
591 695 790 1116 173 366 301 800 350 1187 10 80 15 95 28 91 13 -4 13 -3 2 5
-11 8 -12 42 -1 213 33 550 -63 1144 -271 1674 -485 1236 -1568 2163 -2854
2443 -323 71 -546 93 -890 90 -143 -1 -280 -3 -305 -5z"/>
</g>
</svg>
